P3
	4 4
	255
	200  20  40   100 0  0       0  0  0    255   0 255
	0  0  0    0 255 175     0  0  0     0    0  0
	0  0  0    0  0  0       0 15 175    0    0  0
	255 0 255  0  0  0       200  20  40    255  255 255
